<svg width="73" height="73" viewBox="0 0 73 73" fill="none" xmlns="http://www.w3.org/2000/svg">
<path d="M37 65C52.464 65 65 52.464 65 37C65 21.536 52.464 9 37 9C21.536 9 9 21.536 9 37C9 52.464 21.536 65 37 65Z" stroke="white" stroke-width="3" stroke-miterlimit="10" stroke-linecap="round" stroke-linejoin="round"/>
<path d="M34.9806 43.6912C34.9701 43.3155 34.9649 43.0337 34.9649 42.8458C34.9649 41.7395 35.1215 40.7845 35.4346 39.9808C35.6642 39.3754 36.0347 38.7648 36.5462 38.149C36.9219 37.7002 37.5951 37.0479 38.5658 36.192C39.5469 35.3257 40.1836 34.6369 40.4758 34.1254C40.7681 33.614 40.9142 33.0556 40.9142 32.4503C40.9142 31.3543 40.4863 30.3941 39.6304 29.5696C38.7745 28.7346 37.7256 28.3171 36.4836 28.3171C35.2833 28.3171 34.2813 28.6928 33.4776 29.4443C32.6739 30.1958 32.1469 31.37 31.8964 32.9669L29 32.6225C29.2609 30.4828 30.0333 28.8442 31.3171 27.7065C32.6113 26.5688 34.3178 26 36.4366 26C38.6806 26 40.4706 26.6106 41.8066 27.8317C43.1426 29.0529 43.8105 30.5298 43.8105 32.2624C43.8105 33.2644 43.5757 34.1881 43.106 35.0335C42.6364 35.8789 41.7179 36.907 40.3506 38.1177C39.4321 38.9318 38.8319 39.532 38.5501 39.9182C38.2683 40.3043 38.0596 40.7479 37.9239 41.2489C37.7882 41.7499 37.7099 42.564 37.6891 43.6912H34.9806ZM34.8084 49.3431V46.1336H38.0178V49.3431H34.8084Z" fill="white"/>
</svg>
