<svg width="60" height="60" viewBox="0 0 60 60" fill="none" xmlns="http://www.w3.org/2000/svg">
<path d="M30 58C45.464 58 58 45.464 58 30C58 14.536 45.464 2 30 2C14.536 2 2 14.536 2 30C2 45.464 14.536 58 30 58Z" stroke="black" stroke-width="3.02703" stroke-miterlimit="10" stroke-linecap="round" stroke-linejoin="round"/>
<path d="M28.0633 35.2315C28.0548 34.9253 28.0506 34.6956 28.0506 34.5425C28.0506 33.6409 28.1782 32.8626 28.4333 32.2076C28.6205 31.7143 28.9224 31.2167 29.3392 30.7148C29.6454 30.3491 30.1941 29.8175 30.9851 29.12C31.7847 28.414 32.3035 27.8526 32.5417 27.4358C32.7799 27.019 32.8989 26.564 32.8989 26.0706C32.8989 25.1775 32.5502 24.395 31.8527 23.723C31.1552 23.0425 30.3004 22.7023 29.2882 22.7023C28.31 22.7023 27.4934 23.0085 26.8385 23.6209C26.1835 24.2333 25.754 25.1903 25.5498 26.4917L23.1895 26.211C23.4021 24.4673 24.0315 23.1318 25.0778 22.2047C26.1325 21.2775 27.5232 20.814 29.2499 20.814C31.0787 20.814 32.5374 21.3116 33.6262 22.3068C34.715 23.3019 35.2593 24.5055 35.2593 25.9175C35.2593 26.7341 35.068 27.4868 34.6852 28.1758C34.3024 28.8648 33.5539 29.7026 32.4396 30.6893C31.6911 31.3528 31.202 31.8419 30.9724 32.1566C30.7427 32.4713 30.5726 32.8328 30.462 33.2411C30.3514 33.6494 30.2876 34.3128 30.2706 35.2315H28.0633ZM27.923 39.8374V37.2219H30.5386V39.8374H27.923Z" fill="black"/>
</svg>
