<svg width="312" height="38" viewBox="0 0 312 38" fill="none" xmlns="http://www.w3.org/2000/svg">
<path d="M15.7554 15.6947H13.2031C13.105 15.1494 12.9223 14.6694 12.6551 14.255C12.3878 13.8405 12.0606 13.4887 11.6734 13.1997C11.2862 12.9107 10.8526 12.6925 10.3727 12.5453C9.89826 12.398 9.39381 12.3244 8.85935 12.3244C7.89407 12.3244 7.02968 12.5671 6.26617 13.0524C5.50812 13.5378 4.90823 14.2495 4.46649 15.1875C4.0302 16.1255 3.81206 17.2708 3.81206 18.6233C3.81206 19.9867 4.0302 21.1374 4.46649 22.0754C4.90823 23.0134 5.51085 23.7224 6.27435 24.2023C7.03786 24.6822 7.8968 24.9222 8.85117 24.9222C9.38017 24.9222 9.8819 24.8513 10.3564 24.7095C10.8363 24.5622 11.2698 24.3468 11.657 24.0632C12.0442 23.7797 12.3715 23.4334 12.6387 23.0243C12.9114 22.6099 13.0995 22.1354 13.2031 21.6009L15.7554 21.6091C15.6191 22.4326 15.3546 23.1907 14.9619 23.8833C14.5747 24.5704 14.0757 25.1649 13.4649 25.6666C12.8596 26.1629 12.167 26.5474 11.3871 26.82C10.6072 27.0927 9.75647 27.2291 8.83481 27.2291C7.38416 27.2291 6.09166 26.8855 4.95731 26.1983C3.82297 25.5057 2.92858 24.5159 2.27415 23.2288C1.62517 21.9418 1.30068 20.4066 1.30068 18.6233C1.30068 16.8345 1.6279 15.2993 2.28233 14.0177C2.93676 12.7307 3.83115 11.7436 4.96549 11.0564C6.09984 10.3638 7.38961 10.0175 8.83481 10.0175C9.72375 10.0175 10.5527 10.1457 11.3216 10.402C12.0961 10.6529 12.7914 11.0237 13.4076 11.5145C14.0239 11.9999 14.5338 12.5943 14.9374 13.2979C15.3409 13.9959 15.6136 14.7949 15.7554 15.6947ZM17.594 27L17.5858 24.8813H18.0357C18.3847 24.8813 18.6765 24.8077 18.911 24.6604C19.151 24.5077 19.3473 24.2514 19.5 23.8915C19.6527 23.5315 19.7699 23.0352 19.8517 22.4026C19.9335 21.7646 19.9935 20.9629 20.0317 19.9976L20.2526 14.4349H29.022V27H26.6251V16.5455H22.5185L22.3222 20.8156C22.2731 21.8518 22.1668 22.7571 22.0032 23.5315C21.845 24.3059 21.6133 24.9522 21.3079 25.4703C21.0025 25.9829 20.6098 26.3674 20.1299 26.6237C19.65 26.8746 19.0664 27 18.3793 27H17.594ZM37.6993 27.2536C36.4613 27.2536 35.3952 26.9891 34.5008 26.4601C33.6118 25.9256 32.9247 25.1758 32.4393 24.2105C31.9594 23.2398 31.7194 22.1027 31.7194 20.7993C31.7194 19.5122 31.9594 18.3779 32.4393 17.3962C32.9247 16.4146 33.6009 15.6484 34.468 15.0975C35.3406 14.5467 36.3604 14.2713 37.5275 14.2713C38.2365 14.2713 38.9236 14.3886 39.589 14.6231C40.2543 14.8576 40.8515 15.2257 41.3805 15.7274C41.9095 16.2292 42.3267 16.8809 42.6321 17.6825C42.9375 18.4788 43.0902 19.4468 43.0902 20.5866V21.4537H33.1019V19.6213H40.6933C40.6933 18.9778 40.5624 18.4079 40.3007 17.9116C40.0389 17.4099 39.6708 17.0145 39.1963 16.7254C38.7273 16.4364 38.1765 16.2919 37.5439 16.2919C36.8567 16.2919 36.2568 16.4609 35.7442 16.7991C35.237 17.1317 34.8443 17.568 34.5662 18.1079C34.2935 18.6424 34.1572 19.2232 34.1572 19.8503V21.2819C34.1572 22.1218 34.3044 22.8362 34.5989 23.4252C34.8989 24.0142 35.3161 24.4641 35.8505 24.7749C36.385 25.0803 37.0094 25.233 37.7238 25.233C38.1874 25.233 38.61 25.1676 38.9918 25.0367C39.3735 24.9004 39.7035 24.6986 39.9816 24.4314C40.2598 24.1641 40.4724 23.8342 40.6197 23.4415L42.9347 23.8587C42.7493 24.5404 42.4166 25.1376 41.9367 25.6502C41.4623 26.1574 40.8651 26.5528 40.1452 26.8364C39.4308 27.1145 38.6155 27.2536 37.6993 27.2536ZM44.577 30.6239V24.8813H45.5995C45.8613 24.6413 46.0821 24.355 46.2621 24.0223C46.4475 23.6897 46.603 23.2943 46.7284 22.8362C46.8593 22.3781 46.9684 21.8436 47.0556 21.2328C47.1429 20.6166 47.2192 19.9131 47.2847 19.1223L47.6773 14.4349H56.2176V24.8813H58.1482V30.6239H55.7595V27H46.9983V30.6239H44.577ZM48.2172 24.8813H53.829V16.5291H49.8697L49.6079 19.1223C49.4825 20.4421 49.3243 21.5873 49.1334 22.5581C48.9425 23.5233 48.6371 24.2977 48.2172 24.8813ZM62.085 31.7119C61.7196 31.7119 61.387 31.6819 61.087 31.6219C60.7871 31.5674 60.5635 31.5074 60.4162 31.4419L61.0052 29.4378C61.4524 29.5577 61.8505 29.6095 62.1995 29.5932C62.5486 29.5768 62.8567 29.4459 63.1239 29.2005C63.3966 28.9551 63.6366 28.5543 63.8438 27.998L64.1465 27.1636L59.5491 14.4349H62.1668L65.349 24.1859H65.4799L68.662 14.4349H71.2879L66.1098 28.677C65.8698 29.3314 65.5644 29.8849 65.1936 30.3376C64.8227 30.7957 64.381 31.1393 63.8683 31.3683C63.3557 31.5974 62.7613 31.7119 62.085 31.7119ZM79.9101 19.7522V21.8791H73.2103V19.7522H79.9101ZM75.1982 14.4349V27H72.7522V14.4349H75.1982ZM83.7385 27.2536C82.5714 27.2536 81.5516 26.9809 80.679 26.4356C79.8064 25.8902 79.1302 25.1321 78.6503 24.1614C78.1704 23.1852 77.9304 22.0536 77.9304 20.7665C77.9304 19.4686 78.1704 18.3342 78.6503 17.3635C79.1302 16.3873 79.8064 15.6293 80.679 15.0894C81.5516 14.544 82.5714 14.2713 83.7385 14.2713C84.911 14.2713 85.9308 14.544 86.798 15.0894C87.6705 15.6293 88.3468 16.3873 88.8267 17.3635C89.3121 18.3342 89.5547 19.4686 89.5547 20.7665C89.5547 22.0536 89.3121 23.1852 88.8267 24.1614C88.3468 25.1321 87.6705 25.8902 86.798 26.4356C85.9308 26.9809 84.911 27.2536 83.7385 27.2536ZM83.7385 25.1594C84.5293 25.1594 85.1755 24.9604 85.6772 24.5622C86.1844 24.1587 86.558 23.6242 86.798 22.9589C87.0379 22.2936 87.1579 21.5628 87.1579 20.7665C87.1579 19.9649 87.0379 19.2314 86.798 18.566C86.558 17.8952 86.1844 17.3581 85.6772 16.9545C85.1755 16.5509 84.5293 16.3491 83.7385 16.3491C82.9532 16.3491 82.3069 16.5509 81.7997 16.9545C81.2926 17.3581 80.919 17.8952 80.679 18.566C80.4391 19.2314 80.3191 19.9649 80.3191 20.7665C80.3191 21.5628 80.4391 22.2936 80.679 22.9589C80.919 23.6242 81.2926 24.1587 81.7997 24.5622C82.3069 24.9604 82.9532 25.1594 83.7385 25.1594ZM110.443 24.8895L110.214 30.5994H107.817V27H106.255V24.8895H110.443ZM92.4383 14.4349H94.8352V24.8813H99.179V14.4349H101.576V24.8813H105.92V14.4349H108.316V27H92.4383V14.4349ZM116.679 27.2781C115.883 27.2781 115.163 27.1309 114.519 26.8364C113.876 26.5364 113.366 26.1029 112.989 25.5357C112.619 24.9685 112.433 24.2732 112.433 23.4497C112.433 22.7407 112.57 22.1572 112.842 21.6991C113.115 21.241 113.483 20.8783 113.947 20.6111C114.41 20.3439 114.928 20.1421 115.501 20.0058C116.073 19.8694 116.657 19.7658 117.251 19.6949C118.004 19.6077 118.615 19.5368 119.084 19.4822C119.553 19.4222 119.894 19.3268 120.106 19.1959C120.319 19.065 120.425 18.8523 120.425 18.5578V18.5006C120.425 17.7862 120.224 17.2326 119.82 16.84C119.422 16.4473 118.828 16.251 118.037 16.251C117.213 16.251 116.564 16.4337 116.09 16.7991C115.621 17.159 115.296 17.5598 115.116 18.0016L112.818 17.478C113.09 16.7145 113.488 16.0983 114.012 15.6293C114.541 15.1548 115.149 14.8112 115.836 14.5985C116.523 14.3804 117.246 14.2713 118.004 14.2713C118.506 14.2713 119.038 14.3313 119.599 14.4513C120.166 14.5658 120.695 14.7785 121.186 15.0894C121.683 15.4002 122.089 15.8447 122.405 16.4228C122.721 16.9954 122.88 17.7398 122.88 18.656V27H120.491V25.2821H120.393C120.235 25.5984 119.997 25.9093 119.681 26.2147C119.365 26.5201 118.958 26.7737 118.462 26.9755C117.966 27.1772 117.371 27.2781 116.679 27.2781ZM117.211 25.3148C117.887 25.3148 118.465 25.1812 118.945 24.914C119.43 24.6468 119.798 24.2977 120.049 23.8669C120.305 23.4306 120.434 22.9643 120.434 22.4681V20.8484C120.346 20.9356 120.177 21.0174 119.926 21.0938C119.681 21.1647 119.4 21.2274 119.084 21.2819C118.768 21.331 118.459 21.3774 118.159 21.421C117.86 21.4592 117.609 21.4919 117.407 21.5191C116.932 21.5791 116.499 21.68 116.106 21.8218C115.719 21.9636 115.408 22.1681 115.174 22.4353C114.945 22.6971 114.83 23.0461 114.83 23.4824C114.83 24.0878 115.054 24.5459 115.501 24.8567C115.948 25.1621 116.518 25.3148 117.211 25.3148ZM133.631 27V16.5209H130.62C129.906 16.5209 129.35 16.6873 128.951 17.0199C128.553 17.3526 128.354 17.7889 128.354 18.3288C128.354 18.8632 128.537 19.2941 128.902 19.6213C129.273 19.9431 129.791 20.1039 130.457 20.1039H134.342V22.0836H130.457C129.53 22.0836 128.728 21.9309 128.052 21.6255C127.381 21.3146 126.863 20.8756 126.497 20.3084C126.137 19.7413 125.957 19.0705 125.957 18.2961C125.957 17.5053 126.143 16.8236 126.514 16.251C126.89 15.6729 127.427 15.2257 128.125 14.9094C128.829 14.5931 129.66 14.4349 130.62 14.4349H135.929V27H133.631ZM125.385 27L128.927 20.652H131.43L127.888 27H125.385ZM145.282 31.7119V14.4349H147.67V16.4718H147.875C148.017 16.2101 148.221 15.9074 148.488 15.5638C148.755 15.2202 149.126 14.9203 149.601 14.664C150.075 14.4022 150.702 14.2713 151.482 14.2713C152.497 14.2713 153.402 14.5276 154.198 15.0403C154.994 15.5529 155.619 16.2919 156.071 17.2572C156.53 18.2224 156.759 19.3841 156.759 20.742C156.759 22.1 156.532 23.2643 156.08 24.235C155.627 25.2003 155.005 25.9447 154.215 26.4683C153.424 26.9864 152.521 27.2454 151.507 27.2454C150.743 27.2454 150.119 27.1173 149.634 26.8609C149.154 26.6046 148.777 26.3047 148.505 25.9611C148.232 25.6175 148.022 25.3121 147.875 25.0449H147.727V31.7119H145.282ZM147.678 20.7175C147.678 21.6009 147.807 22.3754 148.063 23.0407C148.319 23.706 148.69 24.2269 149.175 24.6031C149.661 24.974 150.255 25.1594 150.959 25.1594C151.69 25.1594 152.3 24.9658 152.791 24.5786C153.282 24.1859 153.653 23.6542 153.904 22.9834C154.16 22.3126 154.288 21.5573 154.288 20.7175C154.288 19.8885 154.163 19.1441 153.912 18.4842C153.666 17.8243 153.296 17.3035 152.799 16.9218C152.309 16.54 151.695 16.3491 150.959 16.3491C150.25 16.3491 149.65 16.5318 149.159 16.8972C148.674 17.2626 148.306 17.7725 148.055 18.427C147.804 19.0814 147.678 19.8449 147.678 20.7175ZM163.156 27.2781C162.359 27.2781 161.64 27.1309 160.996 26.8364C160.353 26.5364 159.843 26.1029 159.466 25.5357C159.095 24.9685 158.91 24.2732 158.91 23.4497C158.91 22.7407 159.046 22.1572 159.319 21.6991C159.592 21.241 159.96 20.8783 160.423 20.6111C160.887 20.3439 161.405 20.1421 161.978 20.0058C162.55 19.8694 163.134 19.7658 163.728 19.6949C164.481 19.6077 165.092 19.5368 165.561 19.4822C166.03 19.4222 166.371 19.3268 166.583 19.1959C166.796 19.065 166.902 18.8523 166.902 18.5578V18.5006C166.902 17.7862 166.701 17.2326 166.297 16.84C165.899 16.4473 165.304 16.251 164.514 16.251C163.69 16.251 163.041 16.4337 162.567 16.7991C162.098 17.159 161.773 17.5598 161.593 18.0016L159.295 17.478C159.567 16.7145 159.965 16.0983 160.489 15.6293C161.018 15.1548 161.626 14.8112 162.313 14.5985C163 14.3804 163.723 14.2713 164.481 14.2713C164.983 14.2713 165.514 14.3313 166.076 14.4513C166.643 14.5658 167.172 14.7785 167.663 15.0894C168.159 15.4002 168.566 15.8447 168.882 16.4228C169.198 16.9954 169.356 17.7398 169.356 18.656V27H166.968V25.2821H166.87C166.711 25.5984 166.474 25.9093 166.158 26.2147C165.842 26.5201 165.435 26.7737 164.939 26.9755C164.443 27.1772 163.848 27.2781 163.156 27.2781ZM163.687 25.3148C164.364 25.3148 164.942 25.1812 165.422 24.914C165.907 24.6468 166.275 24.2977 166.526 23.8669C166.782 23.4306 166.91 22.9643 166.91 22.4681V20.8484C166.823 20.9356 166.654 21.0174 166.403 21.0938C166.158 21.1647 165.877 21.2274 165.561 21.2819C165.244 21.331 164.936 21.3774 164.636 21.421C164.336 21.4592 164.086 21.4919 163.884 21.5191C163.409 21.5791 162.976 21.68 162.583 21.8218C162.196 21.9636 161.885 22.1681 161.65 22.4353C161.421 22.6971 161.307 23.0461 161.307 23.4824C161.307 24.0878 161.531 24.5459 161.978 24.8567C162.425 25.1621 162.995 25.3148 163.687 25.3148ZM182.308 9.75575L183.322 11.3018C182.946 11.6454 182.518 11.8908 182.038 12.0381C181.564 12.1799 181.016 12.2699 180.394 12.308C179.772 12.3408 179.06 12.3707 178.259 12.398C177.353 12.4253 176.609 12.6216 176.025 12.987C175.442 13.3469 174.992 13.8814 174.676 14.5904C174.365 15.2939 174.163 16.1774 174.07 17.2408H174.226C174.635 16.4609 175.202 15.8774 175.927 15.4902C176.658 15.103 177.479 14.9094 178.39 14.9094C179.404 14.9094 180.307 15.1412 181.097 15.6047C181.888 16.0683 182.51 16.7473 182.962 17.6416C183.421 18.5306 183.65 19.6186 183.65 20.9056C183.65 22.209 183.41 23.3352 182.93 24.2841C182.455 25.233 181.784 25.9665 180.917 26.4846C180.056 26.9973 179.039 27.2536 177.866 27.2536C176.694 27.2536 175.671 26.9891 174.798 26.4601C173.931 25.9256 173.258 25.1349 172.778 24.0878C172.303 23.0407 172.066 21.7482 172.066 20.2103V18.9669C172.066 16.0928 172.579 13.9305 173.604 12.4798C174.629 11.0292 176.162 10.2848 178.201 10.2466C178.861 10.2302 179.45 10.2275 179.968 10.2384C180.487 10.2438 180.939 10.2193 181.326 10.1648C181.719 10.1048 182.046 9.96844 182.308 9.75575ZM177.874 25.2003C178.556 25.2003 179.142 25.0285 179.633 24.685C180.129 24.3359 180.511 23.8424 180.778 23.2043C181.046 22.5662 181.179 21.8136 181.179 20.9465C181.179 20.0958 181.046 19.3732 180.778 18.7787C180.511 18.1843 180.129 17.7316 179.633 17.4208C179.137 17.1045 178.542 16.9463 177.85 16.9463C177.337 16.9463 176.879 17.0363 176.475 17.2163C176.072 17.3908 175.726 17.6498 175.436 17.9934C175.153 18.337 174.932 18.7569 174.774 19.2532C174.621 19.744 174.539 20.3084 174.528 20.9465C174.528 22.2445 174.826 23.2779 175.42 24.0469C176.02 24.8158 176.838 25.2003 177.874 25.2003ZM191.675 27.2536C190.497 27.2536 189.469 26.9836 188.591 26.4437C187.713 25.9038 187.031 25.1485 186.545 24.1778C186.06 23.207 185.817 22.0727 185.817 20.7747C185.817 19.4713 186.06 18.3315 186.545 17.3553C187.031 16.3791 187.713 15.6211 188.591 15.0812C189.469 14.5413 190.497 14.2713 191.675 14.2713C192.853 14.2713 193.881 14.5413 194.759 15.0812C195.637 15.6211 196.318 16.3791 196.804 17.3553C197.289 18.3315 197.532 19.4713 197.532 20.7747C197.532 22.0727 197.289 23.207 196.804 24.1778C196.318 25.1485 195.637 25.9038 194.759 26.4437C193.881 26.9836 192.853 27.2536 191.675 27.2536ZM191.683 25.2003C192.446 25.2003 193.079 24.9985 193.581 24.595C194.082 24.1914 194.453 23.6542 194.693 22.9834C194.939 22.3126 195.061 21.5737 195.061 20.7665C195.061 19.9649 194.939 19.2286 194.693 18.5578C194.453 17.8816 194.082 17.339 193.581 16.9299C193.079 16.5209 192.446 16.3164 191.683 16.3164C190.914 16.3164 190.276 16.5209 189.769 16.9299C189.267 17.339 188.893 17.8816 188.648 18.5578C188.408 19.2286 188.288 19.9649 188.288 20.7665C188.288 21.5737 188.408 22.3126 188.648 22.9834C188.893 23.6542 189.267 24.1914 189.769 24.595C190.276 24.9985 190.914 25.2003 191.683 25.2003ZM198.749 16.5455V14.4349H209.35V16.5455H205.252V27H202.863V16.5455H198.749ZM215.009 27.2781C214.213 27.2781 213.493 27.1309 212.849 26.8364C212.206 26.5364 211.696 26.1029 211.32 25.5357C210.949 24.9685 210.763 24.2732 210.763 23.4497C210.763 22.7407 210.9 22.1572 211.172 21.6991C211.445 21.241 211.813 20.8783 212.277 20.6111C212.74 20.3439 213.258 20.1421 213.831 20.0058C214.404 19.8694 214.987 19.7658 215.582 19.6949C216.334 19.6077 216.945 19.5368 217.414 19.4822C217.883 19.4222 218.224 19.3268 218.437 19.1959C218.649 19.065 218.756 18.8523 218.756 18.5578V18.5006C218.756 17.7862 218.554 17.2326 218.15 16.84C217.752 16.4473 217.158 16.251 216.367 16.251C215.544 16.251 214.895 16.4337 214.42 16.7991C213.951 17.159 213.627 17.5598 213.447 18.0016L211.148 17.478C211.421 16.7145 211.819 16.0983 212.342 15.6293C212.871 15.1548 213.479 14.8112 214.166 14.5985C214.854 14.3804 215.576 14.2713 216.334 14.2713C216.836 14.2713 217.368 14.3313 217.929 14.4513C218.497 14.5658 219.026 14.7785 219.516 15.0894C220.013 15.4002 220.419 15.8447 220.735 16.4228C221.052 16.9954 221.21 17.7398 221.21 18.656V27H218.821V25.2821H218.723C218.565 25.5984 218.328 25.9093 218.011 26.2147C217.695 26.5201 217.289 26.7737 216.792 26.9755C216.296 27.1772 215.702 27.2781 215.009 27.2781ZM215.541 25.3148C216.217 25.3148 216.795 25.1812 217.275 24.914C217.76 24.6468 218.129 24.2977 218.379 23.8669C218.636 23.4306 218.764 22.9643 218.764 22.4681V20.8484C218.677 20.9356 218.508 21.0174 218.257 21.0938C218.011 21.1647 217.73 21.2274 217.414 21.2819C217.098 21.331 216.79 21.3774 216.49 21.421C216.19 21.4592 215.939 21.4919 215.737 21.5191C215.263 21.5791 214.829 21.68 214.436 21.8218C214.049 21.9636 213.738 22.1681 213.504 22.4353C213.275 22.6971 213.16 23.0461 213.16 23.4824C213.16 24.0878 213.384 24.5459 213.831 24.8567C214.278 25.1621 214.848 25.3148 215.541 25.3148Z" fill="#9D9D9D"/>
<path d="M243 19L310 19M310 19L291.892 37M310 19L291.892 1" stroke="#9D9D9D" stroke-width="2"/>
</svg>
