<svg width="327" height="38" viewBox="0 0 327 38" fill="none" xmlns="http://www.w3.org/2000/svg">
<path d="M69 19H2M2 19L20.1081 37M2 19L20.1081 1" stroke="#9D9D9D" stroke-width="2"/>
<path d="M103.937 10.2466V27H101.418V12.4062H93.5319V27H91.0124V10.2466H103.937ZM107.606 31.7119V14.4349H109.995V16.4718H110.199C110.341 16.2101 110.546 15.9074 110.813 15.5638C111.08 15.2202 111.451 14.9203 111.926 14.664C112.4 14.4022 113.027 14.2713 113.807 14.2713C114.821 14.2713 115.727 14.5276 116.523 15.0403C117.319 15.5529 117.944 16.2919 118.396 17.2572C118.854 18.2224 119.083 19.3841 119.083 20.742C119.083 22.1 118.857 23.2643 118.404 24.235C117.952 25.2003 117.33 25.9447 116.539 26.4683C115.748 26.9864 114.846 27.2454 113.832 27.2454C113.068 27.2454 112.444 27.1173 111.958 26.8609C111.478 26.6046 111.102 26.3047 110.829 25.9611C110.557 25.6175 110.347 25.3121 110.199 25.0449H110.052V31.7119H107.606ZM110.003 20.7175C110.003 21.6009 110.131 22.3754 110.388 23.0407C110.644 23.706 111.015 24.2269 111.5 24.6031C111.986 24.974 112.58 25.1594 113.283 25.1594C114.014 25.1594 114.625 24.9658 115.116 24.5786C115.607 24.1859 115.978 23.6542 116.228 22.9834C116.485 22.3126 116.613 21.5573 116.613 20.7175C116.613 19.8885 116.487 19.1441 116.237 18.4842C115.991 17.8243 115.62 17.3035 115.124 16.9218C114.633 16.54 114.02 16.3491 113.283 16.3491C112.574 16.3491 111.975 16.5318 111.484 16.8972C110.998 17.2626 110.63 17.7725 110.379 18.427C110.129 19.0814 110.003 19.8449 110.003 20.7175ZM127.239 27.2536C126.001 27.2536 124.935 26.9891 124.041 26.4601C123.152 25.9256 122.465 25.1758 121.979 24.2105C121.499 23.2398 121.259 22.1027 121.259 20.7993C121.259 19.5122 121.499 18.3779 121.979 17.3962C122.465 16.4146 123.141 15.6484 124.008 15.0975C124.881 14.5467 125.9 14.2713 127.067 14.2713C127.776 14.2713 128.464 14.3886 129.129 14.6231C129.794 14.8576 130.391 15.2257 130.92 15.7274C131.449 16.2292 131.867 16.8809 132.172 17.6825C132.477 18.4788 132.63 19.4468 132.63 20.5866V21.4537H122.642V19.6213H130.233C130.233 18.9778 130.102 18.4079 129.841 17.9116C129.579 17.4099 129.211 17.0145 128.736 16.7254C128.267 16.4364 127.716 16.2919 127.084 16.2919C126.397 16.2919 125.797 16.4609 125.284 16.7991C124.777 17.1317 124.384 17.568 124.106 18.1079C123.833 18.6424 123.697 19.2232 123.697 19.8503V21.2819C123.697 22.1218 123.844 22.8362 124.139 23.4252C124.439 24.0142 124.856 24.4641 125.39 24.7749C125.925 25.0803 126.549 25.233 127.264 25.233C127.727 25.233 128.15 25.1676 128.532 25.0367C128.913 24.9004 129.243 24.6986 129.522 24.4314C129.8 24.1641 130.012 23.8342 130.16 23.4415L132.475 23.8587C132.289 24.5404 131.957 25.1376 131.477 25.6502C131.002 26.1574 130.405 26.5528 129.685 26.8364C128.971 27.1145 128.155 27.2536 127.239 27.2536ZM134.117 30.6239V24.8813H135.139C135.401 24.6413 135.622 24.355 135.802 24.0223C135.987 23.6897 136.143 23.2943 136.268 22.8362C136.399 22.3781 136.508 21.8436 136.596 21.2328C136.683 20.6166 136.759 19.9131 136.825 19.1223L137.217 14.4349H145.758V24.8813H147.688V30.6239H145.299V27H136.538V30.6239H134.117ZM137.757 24.8813H143.369V16.5291H139.41L139.148 19.1223C139.022 20.4421 138.864 21.5873 138.673 22.5581C138.482 23.5233 138.177 24.2977 137.757 24.8813ZM151.919 18.7542H155.568C157.106 18.7542 158.289 19.1359 159.118 19.8994C159.947 20.6629 160.362 21.6473 160.362 22.8525C160.362 23.6379 160.176 24.3441 159.805 24.9713C159.434 25.5984 158.892 26.0947 158.177 26.4601C157.463 26.82 156.593 27 155.568 27H150.079V14.4349H152.476V24.8895H155.568C156.271 24.8895 156.849 24.7068 157.302 24.3414C157.755 23.9705 157.981 23.4988 157.981 22.9262C157.981 22.3208 157.755 21.8273 157.302 21.4455C156.849 21.0583 156.271 20.8647 155.568 20.8647H151.919V18.7542ZM162.145 27V14.4349H164.591V27H162.145ZM166.646 30.6239V24.8813H167.669C167.93 24.6413 168.151 24.355 168.331 24.0223C168.517 23.6897 168.672 23.2943 168.798 22.8362C168.928 22.3781 169.038 21.8436 169.125 21.2328C169.212 20.6166 169.288 19.9131 169.354 19.1223L169.747 14.4349H178.287V24.8813H180.217V30.6239H177.829V27H169.068V30.6239H166.646ZM170.286 24.8813H175.898V16.5291H171.939L171.677 19.1223C171.552 20.4421 171.393 21.5873 171.203 22.5581C171.012 23.5233 170.706 24.2977 170.286 24.8813ZM184.154 31.7119C183.789 31.7119 183.456 31.6819 183.156 31.6219C182.856 31.5674 182.633 31.5074 182.485 31.4419L183.074 29.4378C183.522 29.5577 183.92 29.6095 184.269 29.5932C184.618 29.5768 184.926 29.4459 185.193 29.2005C185.466 28.9551 185.706 28.5543 185.913 27.998L186.216 27.1636L181.618 14.4349H184.236L187.418 24.1859H187.549L190.731 14.4349H193.357L188.179 28.677C187.939 29.3314 187.634 29.8849 187.263 30.3376C186.892 30.7957 186.45 31.1393 185.938 31.3683C185.425 31.5974 184.83 31.7119 184.154 31.7119ZM213.661 24.8895L213.432 30.5994H211.035V27H209.472V24.8895H213.661ZM195.656 14.4349H198.053V24.8813H202.396V14.4349H204.793V24.8813H209.137V14.4349H211.534V27H195.656V14.4349ZM219.896 27.2781C219.1 27.2781 218.38 27.1309 217.737 26.8364C217.093 26.5364 216.583 26.1029 216.207 25.5357C215.836 24.9685 215.651 24.2732 215.651 23.4497C215.651 22.7407 215.787 22.1572 216.06 21.6991C216.332 21.241 216.701 20.8783 217.164 20.6111C217.628 20.3439 218.146 20.1421 218.718 20.0058C219.291 19.8694 219.875 19.7658 220.469 19.6949C221.222 19.6077 221.832 19.5368 222.301 19.4822C222.77 19.4222 223.111 19.3268 223.324 19.1959C223.537 19.065 223.643 18.8523 223.643 18.5578V18.5006C223.643 17.7862 223.441 17.2326 223.038 16.84C222.64 16.4473 222.045 16.251 221.254 16.251C220.431 16.251 219.782 16.4337 219.307 16.7991C218.838 17.159 218.514 17.5598 218.334 18.0016L216.035 17.478C216.308 16.7145 216.706 16.0983 217.23 15.6293C217.759 15.1548 218.367 14.8112 219.054 14.5985C219.741 14.3804 220.464 14.2713 221.222 14.2713C221.723 14.2713 222.255 14.3313 222.817 14.4513C223.384 14.5658 223.913 14.7785 224.404 15.0894C224.9 15.4002 225.306 15.8447 225.623 16.4228C225.939 16.9954 226.097 17.7398 226.097 18.656V27H223.708V25.2821H223.61C223.452 25.5984 223.215 25.9093 222.899 26.2147C222.582 26.5201 222.176 26.7737 221.68 26.9755C221.183 27.1772 220.589 27.2781 219.896 27.2781ZM220.428 25.3148C221.104 25.3148 221.682 25.1812 222.162 24.914C222.648 24.6468 223.016 24.2977 223.267 23.8669C223.523 23.4306 223.651 22.9643 223.651 22.4681V20.8484C223.564 20.9356 223.395 21.0174 223.144 21.0938C222.899 21.1647 222.618 21.2274 222.301 21.2819C221.985 21.331 221.677 21.3774 221.377 21.421C221.077 21.4592 220.826 21.4919 220.624 21.5191C220.15 21.5791 219.716 21.68 219.324 21.8218C218.937 21.9636 218.626 22.1681 218.391 22.4353C218.162 22.6971 218.048 23.0461 218.048 23.4824C218.048 24.0878 218.271 24.5459 218.718 24.8567C219.166 25.1621 219.735 25.3148 220.428 25.3148ZM236.848 27V16.5209H233.838C233.123 16.5209 232.567 16.6873 232.169 17.0199C231.771 17.3526 231.572 17.7889 231.572 18.3288C231.572 18.8632 231.754 19.2941 232.12 19.6213C232.491 19.9431 233.009 20.1039 233.674 20.1039H237.56V22.0836H233.674C232.747 22.0836 231.945 21.9309 231.269 21.6255C230.598 21.3146 230.08 20.8756 229.715 20.3084C229.355 19.7413 229.175 19.0705 229.175 18.2961C229.175 17.5053 229.36 16.8236 229.731 16.251C230.107 15.6729 230.645 15.2257 231.343 14.9094C232.046 14.5931 232.878 14.4349 233.838 14.4349H239.147V27H236.848ZM228.602 27L232.144 20.652H234.648L231.106 27H228.602ZM248.499 31.7119V14.4349H250.888V16.4718H251.092C251.234 16.2101 251.439 15.9074 251.706 15.5638C251.973 15.2202 252.344 14.9203 252.818 14.664C253.293 14.4022 253.92 14.2713 254.7 14.2713C255.714 14.2713 256.619 14.5276 257.416 15.0403C258.212 15.5529 258.836 16.2919 259.289 17.2572C259.747 18.2224 259.976 19.3841 259.976 20.742C259.976 22.1 259.75 23.2643 259.297 24.235C258.845 25.2003 258.223 25.9447 257.432 26.4683C256.641 26.9864 255.739 27.2454 254.724 27.2454C253.961 27.2454 253.336 27.1173 252.851 26.8609C252.371 26.6046 251.995 26.3047 251.722 25.9611C251.449 25.6175 251.239 25.3121 251.092 25.0449H250.945V31.7119H248.499ZM250.896 20.7175C250.896 21.6009 251.024 22.3754 251.28 23.0407C251.537 23.706 251.908 24.2269 252.393 24.6031C252.878 24.974 253.473 25.1594 254.176 25.1594C254.907 25.1594 255.518 24.9658 256.009 24.5786C256.499 24.1859 256.87 23.6542 257.121 22.9834C257.377 22.3126 257.506 21.5573 257.506 20.7175C257.506 19.8885 257.38 19.1441 257.129 18.4842C256.884 17.8243 256.513 17.3035 256.017 16.9218C255.526 16.54 254.912 16.3491 254.176 16.3491C253.467 16.3491 252.867 16.5318 252.377 16.8972C251.891 17.2626 251.523 17.7725 251.272 18.427C251.021 19.0814 250.896 19.8449 250.896 20.7175ZM266.373 27.2781C265.577 27.2781 264.857 27.1309 264.214 26.8364C263.57 26.5364 263.06 26.1029 262.684 25.5357C262.313 24.9685 262.128 24.2732 262.128 23.4497C262.128 22.7407 262.264 22.1572 262.537 21.6991C262.809 21.241 263.177 20.8783 263.641 20.6111C264.104 20.3439 264.623 20.1421 265.195 20.0058C265.768 19.8694 266.351 19.7658 266.946 19.6949C267.698 19.6077 268.309 19.5368 268.778 19.4822C269.247 19.4222 269.588 19.3268 269.801 19.1959C270.013 19.065 270.12 18.8523 270.12 18.5578V18.5006C270.12 17.7862 269.918 17.2326 269.514 16.84C269.116 16.4473 268.522 16.251 267.731 16.251C266.908 16.251 266.259 16.4337 265.784 16.7991C265.315 17.159 264.991 17.5598 264.811 18.0016L262.512 17.478C262.785 16.7145 263.183 16.0983 263.706 15.6293C264.235 15.1548 264.843 14.8112 265.531 14.5985C266.218 14.3804 266.94 14.2713 267.698 14.2713C268.2 14.2713 268.732 14.3313 269.294 14.4513C269.861 14.5658 270.39 14.7785 270.881 15.0894C271.377 15.4002 271.783 15.8447 272.099 16.4228C272.416 16.9954 272.574 17.7398 272.574 18.656V27H270.185V25.2821H270.087C269.929 25.5984 269.692 25.9093 269.375 26.2147C269.059 26.5201 268.653 26.7737 268.157 26.9755C267.66 27.1772 267.066 27.2781 266.373 27.2781ZM266.905 25.3148C267.581 25.3148 268.159 25.1812 268.639 24.914C269.125 24.6468 269.493 24.2977 269.744 23.8669C270 23.4306 270.128 22.9643 270.128 22.4681V20.8484C270.041 20.9356 269.872 21.0174 269.621 21.0938C269.375 21.1647 269.095 21.2274 268.778 21.2819C268.462 21.331 268.154 21.3774 267.854 21.421C267.554 21.4592 267.303 21.4919 267.101 21.5191C266.627 21.5791 266.193 21.68 265.801 21.8218C265.413 21.9636 265.102 22.1681 264.868 22.4353C264.639 22.6971 264.524 23.0461 264.524 23.4824C264.524 24.0878 264.748 24.5459 265.195 24.8567C265.642 25.1621 266.212 25.3148 266.905 25.3148ZM285.526 9.75575L286.54 11.3018C286.164 11.6454 285.735 11.8908 285.256 12.0381C284.781 12.1799 284.233 12.2699 283.611 12.308C282.99 12.3408 282.278 12.3707 281.476 12.398C280.571 12.4253 279.827 12.6216 279.243 12.987C278.659 13.3469 278.21 13.8814 277.893 14.5904C277.582 15.2939 277.381 16.1774 277.288 17.2408H277.443C277.852 16.4609 278.419 15.8774 279.145 15.4902C279.876 15.103 280.696 14.9094 281.607 14.9094C282.621 14.9094 283.524 15.1412 284.315 15.6047C285.106 16.0683 285.727 16.7473 286.18 17.6416C286.638 18.5306 286.867 19.6186 286.867 20.9056C286.867 22.209 286.627 23.3352 286.147 24.2841C285.673 25.233 285.002 25.9665 284.135 26.4846C283.273 26.9973 282.256 27.2536 281.084 27.2536C279.911 27.2536 278.888 26.9891 278.016 26.4601C277.149 25.9256 276.475 25.1349 275.995 24.0878C275.521 23.0407 275.284 21.7482 275.284 20.2103V18.9669C275.284 16.0928 275.796 13.9305 276.822 12.4798C277.847 11.0292 279.379 10.2848 281.419 10.2466C282.079 10.2302 282.668 10.2275 283.186 10.2384C283.704 10.2438 284.157 10.2193 284.544 10.1648C284.937 10.1048 285.264 9.96844 285.526 9.75575ZM281.092 25.2003C281.773 25.2003 282.36 25.0285 282.851 24.685C283.347 24.3359 283.729 23.8424 283.996 23.2043C284.263 22.5662 284.397 21.8136 284.397 20.9465C284.397 20.0958 284.263 19.3732 283.996 18.7787C283.729 18.1843 283.347 17.7316 282.851 17.4208C282.354 17.1045 281.76 16.9463 281.067 16.9463C280.555 16.9463 280.096 17.0363 279.693 17.2163C279.289 17.3908 278.943 17.6498 278.654 17.9934C278.37 18.337 278.15 18.7569 277.991 19.2532C277.839 19.744 277.757 20.3084 277.746 20.9465C277.746 22.2445 278.043 23.2779 278.638 24.0469C279.238 24.8158 280.056 25.2003 281.092 25.2003ZM294.892 27.2536C293.714 27.2536 292.686 26.9836 291.808 26.4437C290.93 25.9038 290.248 25.1485 289.763 24.1778C289.278 23.207 289.035 22.0727 289.035 20.7747C289.035 19.4713 289.278 18.3315 289.763 17.3553C290.248 16.3791 290.93 15.6211 291.808 15.0812C292.686 14.5413 293.714 14.2713 294.892 14.2713C296.07 14.2713 297.098 14.5413 297.976 15.0812C298.854 15.6211 299.536 16.3791 300.021 17.3553C300.507 18.3315 300.749 19.4713 300.749 20.7747C300.749 22.0727 300.507 23.207 300.021 24.1778C299.536 25.1485 298.854 25.9038 297.976 26.4437C297.098 26.9836 296.07 27.2536 294.892 27.2536ZM294.9 25.2003C295.664 25.2003 296.296 24.9985 296.798 24.595C297.3 24.1914 297.671 23.6542 297.911 22.9834C298.156 22.3126 298.279 21.5737 298.279 20.7665C298.279 19.9649 298.156 19.2286 297.911 18.5578C297.671 17.8816 297.3 17.339 296.798 16.9299C296.296 16.5209 295.664 16.3164 294.9 16.3164C294.131 16.3164 293.493 16.5209 292.986 16.9299C292.484 17.339 292.111 17.8816 291.865 18.5578C291.625 19.2286 291.505 19.9649 291.505 20.7665C291.505 21.5737 291.625 22.3126 291.865 22.9834C292.111 23.6542 292.484 24.1914 292.986 24.595C293.493 24.9985 294.131 25.2003 294.9 25.2003ZM301.966 16.5455V14.4349H312.568V16.5455H308.469V27H306.081V16.5455H301.966ZM318.227 27.2781C317.43 27.2781 316.71 27.1309 316.067 26.8364C315.423 26.5364 314.914 26.1029 314.537 25.5357C314.166 24.9685 313.981 24.2732 313.981 23.4497C313.981 22.7407 314.117 22.1572 314.39 21.6991C314.663 21.241 315.031 20.8783 315.494 20.6111C315.958 20.3439 316.476 20.1421 317.049 20.0058C317.621 19.8694 318.205 19.7658 318.799 19.6949C319.552 19.6077 320.163 19.5368 320.632 19.4822C321.101 19.4222 321.441 19.3268 321.654 19.1959C321.867 19.065 321.973 18.8523 321.973 18.5578V18.5006C321.973 17.7862 321.771 17.2326 321.368 16.84C320.97 16.4473 320.375 16.251 319.585 16.251C318.761 16.251 318.112 16.4337 317.638 16.7991C317.169 17.159 316.844 17.5598 316.664 18.0016L314.365 17.478C314.638 16.7145 315.036 16.0983 315.56 15.6293C316.089 15.1548 316.697 14.8112 317.384 14.5985C318.071 14.3804 318.794 14.2713 319.552 14.2713C320.054 14.2713 320.585 14.3313 321.147 14.4513C321.714 14.5658 322.243 14.7785 322.734 15.0894C323.23 15.4002 323.637 15.8447 323.953 16.4228C324.269 16.9954 324.427 17.7398 324.427 18.656V27H322.039V25.2821H321.94C321.782 25.5984 321.545 25.9093 321.229 26.2147C320.912 26.5201 320.506 26.7737 320.01 26.9755C319.514 27.1772 318.919 27.2781 318.227 27.2781ZM318.758 25.3148C319.435 25.3148 320.013 25.1812 320.493 24.914C320.978 24.6468 321.346 24.2977 321.597 23.8669C321.853 23.4306 321.981 22.9643 321.981 22.4681V20.8484C321.894 20.9356 321.725 21.0174 321.474 21.0938C321.229 21.1647 320.948 21.2274 320.632 21.2819C320.315 21.331 320.007 21.3774 319.707 21.421C319.407 21.4592 319.156 21.4919 318.955 21.5191C318.48 21.5791 318.047 21.68 317.654 21.8218C317.267 21.9636 316.956 22.1681 316.721 22.4353C316.492 22.6971 316.378 23.0461 316.378 23.4824C316.378 24.0878 316.601 24.5459 317.049 24.8567C317.496 25.1621 318.066 25.3148 318.758 25.3148Z" fill="#9D9D9D"/>
</svg>
